<svg xmlns="http://www.w3.org/2000/svg" width="24" height="24" viewBox="0 0 24 24" fill="none">
  <path d="M20 10.5H19C18.4477 10.5 18 10.9477 18 11.5V12.5C18 13.0523 18.4477 13.5 19 13.5H20C20.5523 13.5 21 13.0523 21 12.5V11.5C21 10.9477 20.5523 10.5 20 10.5Z" stroke="currentColor" stroke-width="1.5"/>
  <path d="M12.5 10.5H11.5C10.9477 10.5 10.5 10.9477 10.5 11.5V12.5C10.5 13.0523 10.9477 13.5 11.5 13.5H12.5C13.0523 13.5 13.5 13.0523 13.5 12.5V11.5C13.5 10.9477 13.0523 10.5 12.5 10.5Z" stroke="currentColor" stroke-width="1.5"/>
  <path d="M5 10.5H4C3.44772 10.5 3 10.9477 3 11.5V12.5C3 13.0523 3.44772 13.5 4 13.5H5C5.55228 13.5 6 13.0523 6 12.5V11.5C6 10.9477 5.55228 10.5 5 10.5Z" stroke="currentColor" stroke-width="1.5"/>
</svg>