<svg xmlns="http://www.w3.org/2000/svg" width="16" height="16" viewBox="0 0 16 16" fill="none">
  <path d="M1.68645 9.84607C1.54468 10.7754 2.1785 11.4205 2.95454 11.7419C5.92971 12.9745 10.07 12.9745 13.0451 11.7419C13.8212 11.4205 14.455 10.7754 14.3132 9.84607C14.2261 9.27494 13.7953 8.79934 13.4761 8.33494C13.058 7.71921 13.0165 7.04754 13.0164 6.33301C13.0164 3.57158 10.7704 1.33301 7.99984 1.33301C5.22926 1.33301 2.98326 3.57158 2.98326 6.33301C2.98319 7.04754 2.94165 7.71921 2.52358 8.33494C2.2044 8.79934 1.77358 9.27494 1.68645 9.84607Z" stroke="currentColor" stroke-linecap="round" stroke-linejoin="round"/>
  <path d="M5.3335 12.667C5.63916 13.8171 6.71716 14.667 8.00016 14.667C9.28316 14.667 10.3612 13.8171 10.6668 12.667" stroke="currentColor" stroke-linecap="round" stroke-linejoin="round"/>
</svg>