<svg xmlns="http://www.w3.org/2000/svg" width="16" height="16" viewBox="0 0 16 16" fill="none">
  <path d="M9.44772 13.9273C12.2364 13.742 14.4577 11.4891 14.6405 8.66093C14.6762 8.10746 14.6762 7.53426 14.6405 6.98079C14.4577 4.15258 12.2364 1.89975 9.44772 1.71437C8.49632 1.65113 7.50305 1.65127 6.55358 1.71437C3.76491 1.89975 1.54359 4.15258 1.36081 6.98079C1.32504 7.53426 1.32504 8.10746 1.36081 8.66093C1.42738 9.69099 1.88294 10.6447 2.41926 11.4501C2.73066 12.0139 2.52514 12.7175 2.20079 13.3322C1.96692 13.7754 1.84999 13.997 1.94388 14.1571C2.03777 14.3171 2.24749 14.3223 2.66694 14.3325C3.49643 14.3527 4.05577 14.1175 4.49977 13.7901C4.75158 13.6044 4.8775 13.5115 4.96428 13.5009C5.05105 13.4902 5.22183 13.5605 5.56332 13.7012C5.87025 13.8276 6.22662 13.9056 6.55358 13.9273C7.50305 13.9905 8.49632 13.9906 9.44772 13.9273Z" stroke="currentColor" stroke-linejoin="round"/>
</svg>