<svg width="24" height="24" viewBox="0 0 24 24" fill="none" xmlns="http://www.w3.org/2000/svg">
<path d="M14.0727 3.88556C14.8179 3.07819 15.1905 2.67452 15.5864 2.43905C16.5417 1.87088 17.7181 1.85321 18.6894 2.39244C19.0919 2.61592 19.4759 3.00824 20.244 3.79287C21.0121 4.57751 21.3962 4.96982 21.6149 5.38103C22.1428 6.37321 22.1255 7.57488 21.5693 8.55078C21.3388 8.95524 20.9436 9.33586 20.1533 10.0971L10.7496 19.1543C9.2519 20.5969 8.50302 21.3182 7.56708 21.6837C6.63114 22.0493 5.60222 22.0224 3.54438 21.9686L3.2644 21.9613C2.63793 21.9449 2.32469 21.9367 2.14261 21.73C1.96052 21.5234 1.98538 21.2043 2.0351 20.5662L2.0621 20.2197C2.20203 18.4235 2.27199 17.5255 2.62273 16.7182C2.97346 15.9109 3.57846 15.2555 4.78845 13.9445L14.0727 3.88556Z" stroke="currentColor" stroke-width="1.5" stroke-linejoin="round"/>
<path d="M12.9973 4L19.9973 11" stroke="currentColor" stroke-width="1.5" stroke-linejoin="round"/>
<path d="M13.9993 21.9999H21.9993" stroke="currentColor" stroke-width="1.5" stroke-linecap="round" stroke-linejoin="round"/>
</svg>
