<svg width="24" height="24" viewBox="0 0 24 24" fill="none" xmlns="http://www.w3.org/2000/svg">
<path d="M6.5 21C8.98528 21 11 18.9853 11 16.5C11 14.0147 8.98528 12 6.5 12C4.01472 12 2 14.0147 2 16.5C2 18.9853 4.01472 21 6.5 21Z" stroke="currentColor" stroke-width="1.5" stroke-linecap="round" stroke-linejoin="round"/>
<path d="M19 21C20.6569 21 22 19.6569 22 18C22 16.3431 20.6569 15 19 15C17.3431 15 16 16.3431 16 18C16 19.6569 17.3431 21 19 21Z" stroke="currentColor" stroke-width="1.5" stroke-linecap="round" stroke-linejoin="round"/>
<path d="M2 10.4995C3.25349 9.55792 4.81159 9 6.5 9C10.6421 9 14 12.3579 14 16.5C14 16.596 13.9982 16.6915 13.9946 16.7866C13.9719 17.3913 13.9605 17.6937 14.1081 17.8469C14.2556 18 14.5282 18 15.0734 18H16" stroke="currentColor" stroke-width="1.5" stroke-linecap="round" stroke-linejoin="round"/>
<path d="M13 9L16.1057 9.58232C18.4466 10.0212 19.6171 10.2407 20.3085 11.0739C21 11.907 21 13.1047 21 15.5" stroke="currentColor" stroke-width="1.5" stroke-linecap="round" stroke-linejoin="round"/>
<path d="M20 12H19" stroke="currentColor" stroke-width="1.5" stroke-linecap="round" stroke-linejoin="round"/>
<path d="M13 12.5V9.58708C13 9.19778 12.9432 8.81056 12.8313 8.43768L11.5 3M4 9V3" stroke="currentColor" stroke-width="1.5" stroke-linecap="round" stroke-linejoin="round"/>
<path d="M3 3H13" stroke="currentColor" stroke-width="1.5" stroke-linecap="round" stroke-linejoin="round"/>
<path d="M18 9.5V8C18 6.89543 18.8954 6 20 6" stroke="currentColor" stroke-width="1.5" stroke-linecap="round" stroke-linejoin="round"/>
<path d="M7 9V3" stroke="currentColor" stroke-width="1.5" stroke-linecap="round" stroke-linejoin="round"/>
</svg>
