<svg width="24" height="24" viewBox="0 0 24 24" fill="none" xmlns="http://www.w3.org/2000/svg">
<path d="M11.9977 2.00037C8.98994 2.00037 7.03969 4.01936 4.73322 4.75527C3.7954 5.0545 3.32648 5.20411 3.13671 5.41502C2.94694 5.62593 2.89137 5.93412 2.78023 6.5505C1.59094 13.1464 4.19041 19.2444 10.3898 21.6179C11.0559 21.8729 11.3889 22.0004 12.001 22.0004C12.613 22.0004 12.9461 21.8729 13.6121 21.6179C19.8111 19.2443 22.4081 13.1464 21.2185 6.5505C21.1073 5.93401 21.0517 5.62577 20.8619 5.41486C20.6721 5.20395 20.2032 5.05442 19.2654 4.75536C16.958 4.01952 15.0056 2.00037 11.9977 2.00037Z" stroke="currentColor" stroke-width="1.5" stroke-linecap="round" stroke-linejoin="round"/>
<path d="M9 13C9 13 10 13 11 15C11 15 14.1765 10 17 9" stroke="currentColor" stroke-width="1.5" stroke-linecap="round" stroke-linejoin="round"/>
</svg>
