<svg xmlns="http://www.w3.org/2000/svg" width="24" height="24" viewBox="0 0 24 24" fill="none">
  <path d="M11.9992 2C8.99141 2 7.04116 4.01899 4.73469 4.7549C3.79687 5.05413 3.32795 5.20374 3.13818 5.41465C2.94841 5.62556 2.89284 5.93375 2.7817 6.55013C1.59241 13.146 4.19188 19.244 10.3913 21.6175C11.0574 21.8725 11.3904 22 12.0025 22C12.6145 22 12.9476 21.8725 13.6136 21.6175C19.8126 19.2439 22.4096 13.146 21.22 6.55013C21.1088 5.93364 21.0532 5.6254 20.8634 5.41449C20.6736 5.20358 20.2047 5.05405 19.2669 4.75499C16.9595 4.01915 15.0071 2 11.9992 2Z" stroke="currentColor" stroke-width="1.5" stroke-linecap="round" stroke-linejoin="round"/>
  <path d="M9 13C9 13 10 13 11 15C11 15 14.1765 10 17 9" stroke="currentColor" stroke-width="1.5" stroke-linecap="round" stroke-linejoin="round"/>
</svg>