<svg xmlns="http://www.w3.org/2000/svg" width="16" height="16" viewBox="0 0 16 16" fill="none">
  <path d="M14 4.33301C14 5.43757 13.1046 6.33301 12 6.33301C10.8954 6.33301 10 5.43757 10 4.33301C10 3.22844 10.8954 2.33301 12 2.33301C13.1046 2.33301 14 3.22844 14 4.33301Z" stroke="currentColor"/>
  <path d="M6 8C6 9.1046 5.10457 10 4 10C2.89543 10 2 9.1046 2 8C2 6.8954 2.89543 6 4 6C5.10457 6 6 6.8954 6 8Z" stroke="currentColor"/>
  <path d="M14 11.667C14 12.7716 13.1046 13.667 12 13.667C10.8954 13.667 10 12.7716 10 11.667C10 10.5624 10.8954 9.66699 12 9.66699C13.1046 9.66699 14 10.5624 14 11.667Z" stroke="currentColor"/>
  <path d="M5.81885 7.16666L10.1522 5.16699M5.81885 8.83366L10.1522 10.8333" stroke="currentColor"/>
</svg>