<svg xmlns="http://www.w3.org/2000/svg" width="24" height="24" viewBox="0 0 24 24" fill="none">
  <path d="M3 11V15.5C3 18.3284 3 19.7426 3.87868 20.6213C4.75736 21.5 6.17157 21.5 9 21.5H15C17.8284 21.5 19.2426 21.5 20.1213 20.6213C21 19.7426 21 18.3284 21 15.5V11" stroke="currentColor" stroke-width="1.5"/>
  <path d="M7.96973 9L8.69422 8.80605C8.59689 8.44245 8.24512 8.20732 7.87193 8.2564C7.49873 8.30549 7.21973 8.62359 7.21973 9H7.96973ZM16.0283 9H16.7783C16.7783 8.62359 16.4993 8.30549 16.1261 8.2564C15.7529 8.20732 15.4011 8.44245 15.3038 8.80605L16.0283 9ZM7.21973 9C7.21973 10.2375 6.20772 11.25 4.94778 11.25V12.75C7.02581 12.75 8.71973 11.0762 8.71973 9H7.21973ZM4.94778 11.25C3.96785 11.25 3.13471 10.6361 2.81533 9.77865L1.40968 10.3022C1.94257 11.7329 3.32669 12.75 4.94778 12.75V11.25ZM21.1827 9.77865C20.8633 10.6361 20.0302 11.25 19.0503 11.25V12.75C20.6713 12.75 22.0555 11.7329 22.5884 10.3022L21.1827 9.77865ZM19.0503 11.25C17.7903 11.25 16.7783 10.2375 16.7783 9H15.2783C15.2783 11.0762 16.9722 12.75 19.0503 12.75V11.25ZM11.999 11.25C10.3903 11.25 9.0658 10.1941 8.69422 8.80605L7.24525 9.19395C7.79736 11.2564 9.73058 12.75 11.999 12.75V11.25ZM15.3038 8.80605C14.9322 10.1941 13.6077 11.25 11.999 11.25V12.75C14.2675 12.75 16.2007 11.2564 16.7528 9.19395L15.3038 8.80605ZM3.10671 8.45185L4.07037 6.7777L2.77036 6.02939L1.80669 7.70355L3.10671 8.45185ZM22.1913 7.70355L21.2277 6.02939L19.9277 6.7777L20.8913 8.45185L22.1913 7.70355ZM5.91413 3.25H18.0839V1.75H5.91413V3.25ZM20.8076 4.45934C20.8076 2.95786 19.583 1.75 18.0839 1.75V3.25C18.7649 3.25 19.3076 3.79659 19.3076 4.45934H20.8076ZM21.2277 6.02939C20.9522 5.55089 20.8076 5.00972 20.8076 4.45934H19.3076C19.3076 5.27286 19.5214 6.072 19.9277 6.7777L21.2277 6.02939ZM4.69046 4.45934C4.69046 3.79659 5.23314 3.25 5.91413 3.25V1.75C4.41506 1.75 3.19046 2.95786 3.19046 4.45934H4.69046ZM22.5884 10.3022C22.6313 10.1871 22.6933 10.0269 22.725 9.82441C22.7566 9.62312 22.7543 9.41456 22.7337 9.16669L21.2388 9.29116C21.255 9.48552 21.2482 9.55963 21.2432 9.592C21.2383 9.62315 21.2315 9.64756 21.1827 9.77865L22.5884 10.3022ZM20.8913 8.45185C21.1664 8.92967 21.2175 9.03434 21.2388 9.29116L22.7337 9.16669C22.6814 8.53904 22.4604 8.17106 22.1913 7.70355L20.8913 8.45185ZM4.07037 6.7777C4.47658 6.072 4.69046 5.27286 4.69046 4.45934H3.19046C3.19046 5.00972 3.04579 5.55089 2.77036 6.02939L4.07037 6.7777ZM2.81533 9.77865C2.76649 9.64756 2.75977 9.62315 2.75488 9.592C2.74981 9.55963 2.743 9.48552 2.75919 9.29116L1.26436 9.16669C1.24372 9.41457 1.24143 9.62312 1.273 9.82441C1.30476 10.0269 1.36681 10.1872 1.40968 10.3022L2.81533 9.77865ZM1.80669 7.70355C1.53759 8.17106 1.31662 8.53904 1.26436 9.16669L2.75919 9.29116C2.78057 9.03434 2.83167 8.92967 3.10671 8.45185L1.80669 7.70355Z" fill="currentColor"/>
  <path d="M7.00098 18H11.001" stroke="currentColor" stroke-width="1.5" stroke-linecap="round"/>
</svg>