<svg xmlns="http://www.w3.org/2000/svg" width="16" height="16" viewBox="0 0 16 16" fill="none">
  <g clip-path="url(#clip0_498_4025)">
    <path d="M9.15043 2.29677L10.3236 4.66257C10.4836 4.9919 10.9102 5.30778 11.2702 5.36827L13.3966 5.72448C14.7565 5.953 15.0765 6.94772 14.0966 7.92898L12.4434 9.59578C12.1634 9.87805 12.0102 10.4224 12.0968 10.8123L12.5701 12.8756C12.9434 14.5088 12.0834 15.1406 10.6503 14.287L8.65716 13.0974C8.29723 12.8824 7.70396 12.8824 7.3373 13.0974L5.34421 14.287C3.9177 15.1406 3.05113 14.5021 3.42442 12.8756L3.8977 10.8123C3.98436 10.4224 3.83104 9.87805 3.55107 9.59578L1.89792 7.92898C0.924697 6.94772 1.238 5.953 2.59784 5.72448L4.72428 5.36827C5.07757 5.30778 5.50419 4.9919 5.66417 4.66257L6.83736 2.29677C7.4773 1.01306 8.51716 1.01306 9.15043 2.29677Z" stroke="currentColor" stroke-linecap="round" stroke-linejoin="round"/>
  </g>
</svg>