<svg width="20" height="20" viewBox="0 0 20 20" fill="none" xmlns="http://www.w3.org/2000/svg">
<path d="M16.25 4.58301L15.7336 12.9373C15.6016 15.0717 15.5357 16.1389 15.0007 16.9063C14.7361 17.2856 14.3956 17.6058 14.0006 17.8463C13.2017 18.333 12.1325 18.333 9.99392 18.333C7.8526 18.333 6.78192 18.333 5.98254 17.8454C5.58733 17.6044 5.24667 17.2837 4.98223 16.9037C4.4474 16.1352 4.38287 15.0664 4.25384 12.929L3.75 4.58301" stroke="currentColor" stroke-width="1.25" stroke-linecap="round"/>
<path d="M17.5 4.58301H2.5" stroke="currentColor" stroke-width="1.25" stroke-linecap="round"/>
<path d="M13.3809 4.58366L12.812 3.4101C12.4341 2.63054 12.2452 2.24076 11.9193 1.99767C11.8469 1.94374 11.7704 1.89578 11.6903 1.85424C11.3294 1.66699 10.8963 1.66699 10.0299 1.66699C9.14184 1.66699 8.69776 1.66699 8.33088 1.86209C8.24956 1.90533 8.17196 1.95524 8.09889 2.0113C7.76917 2.26424 7.585 2.66828 7.21665 3.47638L6.71191 4.58366" stroke="currentColor" stroke-width="1.25" stroke-linecap="round"/>
<path d="M7.91504 13.75V8.75" stroke="currentColor" stroke-width="1.25" stroke-linecap="round"/>
<path d="M12.085 13.75V8.75" stroke="currentColor" stroke-width="1.25" stroke-linecap="round"/>
</svg>
