<svg width="24" height="24" viewBox="0 0 24 24" fill="none" xmlns="http://www.w3.org/2000/svg">
<path d="M17 20C18.1046 20 19 19.1046 19 18C19 16.8954 18.1046 16 17 16C15.8954 16 15 16.8954 15 18C15 19.1046 15.8954 20 17 20Z" stroke="currentColor" stroke-width="1.5"/>
<path d="M17 20C18.1046 20 19 19.1046 19 18C19 16.8954 18.1046 16 17 16C15.8954 16 15 16.8954 15 18C15 19.1046 15.8954 20 17 20Z" stroke="currentColor" stroke-width="1.5"/>
<path d="M7 20C8.10457 20 9 19.1046 9 18C9 16.8954 8.10457 16 7 16C5.89543 16 5 16.8954 5 18C5 19.1046 5.89543 20 7 20Z" stroke="currentColor" stroke-width="1.5"/>
<path d="M6.99927 20C8.10384 20 8.99927 19.1046 8.99927 18C8.99927 16.8954 8.10384 16 6.99927 16C5.8947 16 4.99927 16.8954 4.99927 18C4.99927 19.1046 5.8947 20 6.99927 20Z" stroke="currentColor" stroke-width="1.5"/>
<path d="M5 17.9724C3.90328 17.9178 3.2191 17.7546 2.73223 17.2678C2.24536 16.7809 2.08222 16.0967 2.02755 15M9 18H15M19 17.9724C20.0967 17.9178 20.7809 17.7546 21.2678 17.2678C22 16.5355 22 15.357 22 13V11H17.3C16.5555 11 16.1832 11 15.882 10.9021C15.2731 10.7043 14.7957 10.2269 14.5979 9.61803C14.5 9.31677 14.5 8.94451 14.5 8.2C14.5 7.08323 14.5 6.52485 14.3532 6.07295C14.0564 5.15964 13.3404 4.44358 12.4271 4.14683C11.9752 4 11.4168 4 10.3 4H2" stroke="currentColor" stroke-width="1.5" stroke-linecap="round" stroke-linejoin="round"/>
<path d="M4.99927 17.9724C3.90255 17.9178 3.21837 17.7546 2.7315 17.2678C2.24463 16.7809 2.08149 16.0967 2.02682 15M8.99927 18H14.9993M18.9993 17.9724C20.096 17.9178 20.7802 17.7546 21.2671 17.2678C21.9993 16.5355 21.9993 15.357 21.9993 13V11H17.2993C16.5548 11 16.1825 11 15.8813 10.9021C15.2724 10.7043 14.795 10.2269 14.5972 9.61803C14.4993 9.31677 14.4993 8.94451 14.4993 8.2C14.4993 7.08323 14.4993 6.52485 14.3525 6.07295C14.0557 5.15964 13.3397 4.44358 12.4264 4.14683C11.9745 4 11.4161 4 10.2993 4H1.99927" stroke="currentColor" stroke-width="1.5" stroke-linecap="round" stroke-linejoin="round"/>
<path d="M2 8H8" stroke="currentColor" stroke-width="1.5" stroke-linecap="round" stroke-linejoin="round"/>
<path d="M1.99927 8H7.99927" stroke="currentColor" stroke-width="1.5" stroke-linecap="round" stroke-linejoin="round"/>
<path d="M2 11H6" stroke="currentColor" stroke-width="1.5" stroke-linecap="round" stroke-linejoin="round"/>
<path d="M1.99927 11H5.99927" stroke="currentColor" stroke-width="1.5" stroke-linecap="round" stroke-linejoin="round"/>
<path d="M14.5 6H16.3212C17.7766 6 18.5042 6 19.0964 6.35371C19.6886 6.70742 20.0336 7.34811 20.7236 8.6295L22 11" stroke="currentColor" stroke-width="1.5" stroke-linecap="round" stroke-linejoin="round"/>
<path d="M14.5007 6H16.3219C17.7773 6 18.5049 6 19.0971 6.35371C19.6893 6.70742 20.0343 7.34811 20.7243 8.6295L22.0007 11" stroke="currentColor" stroke-width="1.5" stroke-linecap="round" stroke-linejoin="round"/>
</svg>
