<svg width="132" height="33" viewBox="0 0 132 33" fill="none" xmlns="http://www.w3.org/2000/svg">
<path d="M7.69578 26.28C6.77578 26.28 5.90578 26.1 5.08578 25.74C4.26578 25.4 3.54578 24.92 2.92578 24.3C2.32578 23.7 1.84578 22.99 1.48578 22.17C1.14578 21.35 0.975781 20.48 0.975781 19.56V10.77H4.27578V19.08C4.27578 19.54 4.35578 19.97 4.51578 20.37C4.69578 20.77 4.93578 21.12 5.23578 21.42C5.53578 21.72 5.88578 21.95 6.28578 22.11C6.68578 22.29 7.11578 22.38 7.57578 22.38H12.9458C13.7058 22.38 14.3458 22.12 14.8658 21.6C15.3858 21.08 15.6458 20.44 15.6458 19.68V10.29H18.9458V20.25C18.9458 21.09 18.7858 21.87 18.4658 22.59C18.1458 23.33 17.7158 23.97 17.1758 24.51C16.6358 25.05 15.9958 25.48 15.2558 25.8C14.5358 26.12 13.7558 26.28 12.9158 26.28H7.69578ZM8.23578 6.84H11.6858V10.29H8.23578V6.84ZM28.8153 20.58C28.8153 20.86 28.6753 21 28.3953 21H27.5253C26.8053 21 26.1253 20.87 25.4853 20.61C24.8453 20.33 24.2853 19.95 23.8053 19.47C23.3253 18.99 22.9453 18.43 22.6653 17.79C22.3853 17.15 22.2453 16.47 22.2453 15.75V0.449998H25.5453V15.66C25.5453 16.06 25.6853 16.4 25.9653 16.68C26.2453 16.96 26.5853 17.1 26.9853 17.1H28.3953C28.5153 17.1 28.6153 17.15 28.6953 17.25C28.7753 17.33 28.8153 17.43 28.8153 17.55V20.58ZM28.3848 17.1H32.8248C33.1048 17.1 33.2448 17.24 33.2448 17.52V20.58C33.2448 20.86 33.1048 21 32.8248 21H28.3848C28.1048 21 27.9648 20.86 27.9648 20.58V17.52C27.9648 17.24 28.1048 17.1 28.3848 17.1ZM32.8379 17.1H37.2779C37.5579 17.1 37.6979 17.24 37.6979 17.52V20.58C37.6979 20.86 37.5579 21 37.2779 21H32.8379C32.5579 21 32.4179 20.86 32.4179 20.58V17.52C32.4179 17.24 32.5579 17.1 32.8379 17.1ZM37.291 17.1H41.731C42.011 17.1 42.151 17.24 42.151 17.52V20.58C42.151 20.86 42.011 21 41.731 21H37.291C37.011 21 36.871 20.86 36.871 20.58V17.52C36.871 17.24 37.011 17.1 37.291 17.1ZM41.7441 17.1H46.1841C46.4641 17.1 46.6041 17.24 46.6041 17.52V20.58C46.6041 20.86 46.4641 21 46.1841 21H41.7441C41.4641 21 41.3241 20.86 41.3241 20.58V17.52C41.3241 17.24 41.4641 17.1 41.7441 17.1ZM46.1973 17.1H50.6373C50.9173 17.1 51.0573 17.24 51.0573 17.52V20.58C51.0573 20.86 50.9173 21 50.6373 21H46.1973C45.9173 21 45.7773 20.86 45.7773 20.58V17.52C45.7773 17.24 45.9173 17.1 46.1973 17.1ZM50.6504 17.1H55.0904C55.3704 17.1 55.5104 17.24 55.5104 17.52V20.58C55.5104 20.86 55.3704 21 55.0904 21H50.6504C50.3704 21 50.2304 20.86 50.2304 20.58V17.52C50.2304 17.24 50.3704 17.1 50.6504 17.1ZM55.8835 24.6H59.3335V28.05H55.8835V24.6ZM60.2035 17.1C60.6035 17.1 60.9435 16.96 61.2235 16.68C61.5035 16.38 61.6435 16.03 61.6435 15.63V9.42H64.9435V15.63C64.9435 16.37 64.8035 17.07 64.5235 17.73C64.2435 18.37 63.8535 18.94 63.3535 19.44C62.8735 19.92 62.3035 20.3 61.6435 20.58C61.0035 20.86 60.3135 21 59.5735 21H55.1035C54.9835 21 54.8835 20.96 54.8035 20.88C54.7235 20.78 54.6835 20.68 54.6835 20.58V17.55C54.6835 17.43 54.7235 17.33 54.8035 17.25C54.8835 17.15 54.9835 17.1 55.1035 17.1H60.2035Z" fill="#2EBF6F"/>
<path d="M75.3514 10.26V15.87C75.3514 16.23 75.5014 16.53 75.8014 16.77C76.1014 16.99 76.4314 17.1 76.7914 17.1H79.3714C79.6514 17.1 79.7914 17.24 79.7914 17.52V20.58C79.7914 20.86 79.6514 21 79.3714 21H77.3314C76.9914 21 76.6314 20.94 76.2514 20.82C75.8714 20.7 75.5714 20.45 75.3514 20.07V20.61C75.3514 21.37 75.2214 22.09 74.9614 22.77C74.7214 23.47 74.3814 24.11 73.9414 24.69C73.5014 25.27 72.9814 25.77 72.3814 26.19C71.7814 26.63 71.1214 26.97 70.4014 27.21L66.2614 28.62L65.2414 25.53L69.5614 24.12C70.3214 23.88 70.9214 23.43 71.3614 22.77C71.8214 22.13 72.0514 21.42 72.0514 20.64V10.26H75.3514ZM71.9014 4.08H75.3514V7.53H71.9014V4.08ZM79.3613 17.1H83.8013C84.0813 17.1 84.2213 17.24 84.2213 17.52V20.58C84.2213 20.86 84.0813 21 83.8013 21H79.3613C79.0813 21 78.9413 20.86 78.9413 20.58V17.52C78.9413 17.24 79.0813 17.1 79.3613 17.1ZM83.8145 17.1H88.2545C88.5345 17.1 88.6745 17.24 88.6745 17.52V20.58C88.6745 20.86 88.5345 21 88.2545 21H83.8145C83.5345 21 83.3945 20.86 83.3945 20.58V17.52C83.3945 17.24 83.5345 17.1 83.8145 17.1ZM88.2676 17.1H92.7076C92.9876 17.1 93.1276 17.24 93.1276 17.52V20.58C93.1276 20.86 92.9876 21 92.7076 21H88.2676C87.9876 21 87.8476 20.86 87.8476 20.58V17.52C87.8476 17.24 87.9876 17.1 88.2676 17.1ZM94.1307 28.05H97.5507V24.6H94.1307V28.05ZM99.1107 28.05H102.561V24.6H99.1107V28.05ZM104.391 20.58C104.391 20.68 104.351 20.78 104.271 20.88C104.191 20.96 104.091 21 103.971 21H101.691C101.051 21 100.411 20.83 99.7707 20.49C99.1307 20.13 98.7007 19.71 98.4807 19.23C98.3407 19.47 98.1407 19.7 97.8807 19.92C97.6207 20.12 97.3307 20.31 97.0107 20.49C96.7107 20.65 96.3807 20.78 96.0207 20.88C95.6807 20.96 95.3407 21 95.0007 21H92.7207C92.4407 21 92.3007 20.86 92.3007 20.58V17.55C92.3007 17.43 92.3407 17.33 92.4207 17.25C92.5007 17.15 92.6007 17.1 92.7207 17.1H95.3007C95.7007 17.1 96.0507 16.98 96.3507 16.74C96.6507 16.5 96.8407 16.18 96.9207 15.78L98.0307 10.38L101.271 10.95L100.371 15.48C100.271 15.9 100.361 16.28 100.641 16.62C100.921 16.94 101.281 17.1 101.721 17.1H103.971C104.091 17.1 104.191 17.15 104.271 17.25C104.351 17.33 104.391 17.43 104.391 17.55V20.58ZM103.551 17.52C103.551 17.24 103.691 17.1 103.971 17.1H105.801C106.201 17.1 106.541 16.96 106.821 16.68C107.101 16.4 107.241 16.06 107.241 15.66V0.449998H110.541V15.66C110.541 16.4 110.401 17.1 110.121 17.76C109.841 18.4 109.461 18.96 108.981 19.44C108.501 19.92 107.931 20.3 107.271 20.58C106.631 20.86 105.941 21 105.201 21H103.971C103.871 21 103.781 20.96 103.701 20.88C103.601 20.8 103.551 20.7 103.551 20.58V17.52ZM120.397 20.58C120.397 20.86 120.257 21 119.977 21H119.107C118.387 21 117.707 20.87 117.067 20.61C116.427 20.33 115.867 19.95 115.387 19.47C114.907 18.99 114.527 18.43 114.247 17.79C113.967 17.15 113.827 16.47 113.827 15.75V0.449998H117.127V15.66C117.127 16.06 117.267 16.4 117.547 16.68C117.827 16.96 118.167 17.1 118.567 17.1H119.977C120.097 17.1 120.197 17.15 120.277 17.25C120.357 17.33 120.397 17.43 120.397 17.55V20.58ZM120.747 24.6H124.197V28.05H120.747V24.6ZM125.757 24.6H129.207V28.05H125.757V24.6ZM123.207 29.16H126.657V32.61H123.207V29.16ZM126.867 17.1C127.267 17.1 127.607 16.96 127.887 16.68C128.167 16.38 128.307 16.03 128.307 15.63V9.42H131.607V15.63C131.607 16.37 131.467 17.07 131.187 17.73C130.907 18.37 130.517 18.94 130.017 19.44C129.537 19.92 128.967 20.3 128.307 20.58C127.667 20.86 126.977 21 126.237 21H119.967C119.847 21 119.747 20.96 119.667 20.88C119.587 20.78 119.547 20.68 119.547 20.58V17.55C119.547 17.43 119.587 17.33 119.667 17.25C119.747 17.15 119.847 17.1 119.967 17.1H126.867Z" fill="#23262F"/>
</svg>
